<svg width="116" height="116" viewBox="0 0 116 116" fill="none" xmlns="http://www.w3.org/2000/svg">
<g clip-path="url(#clip0_1573_82)">
<path d="M76.0465 23.4796C75.6273 23.1748 75.5307 22.9959 75.346 22.911C61.9194 20.0321 49.2328 21.9083 37.7778 29.7071C34.8803 31.6693 32.5511 34.341 30.8287 37.4934C27.0783 44.218 28.1023 52.2413 33.3737 57.8026C36.1046 60.7167 39.2263 63.0261 43.2562 63.8032C44.7213 62.6167 46.1395 61.3863 47.6103 60.3817C50.0175 58.7543 52.6819 58.0744 55.5735 58.8437C57.7291 59.3642 59.1358 60.6833 59.1811 62.1385C59.2407 64.0484 58.0072 65.3637 56.3844 65.8726C54.1307 66.5845 51.7775 67.0265 49.4656 67.3305C47.9693 67.5166 46.3707 67.3419 44.8659 67.2551C40.685 73.3111 43.5875 80.2708 51.6599 83.691C52.5523 83.1153 53.4887 82.4925 54.428 81.9607C57.965 80.0684 61.6823 79.5813 65.4207 81.233C66.8516 81.8685 68.156 82.8268 68.1687 84.6927C68.1672 86.1039 66.9337 87.4193 64.9499 88.0312C61.7925 88.955 58.5981 88.6964 55.4393 88.1181C54.3395 87.8814 53.2397 87.6446 52.1839 87.3609C45.4124 96.4614 47.3114 109.19 57.616 112.673C56.9964 113.24 56.5587 113.8 56.1069 113.906C55.564 114.015 54.8721 113.72 54.3619 113.418C49.6715 110.432 46.4078 106.489 46.0913 100.718C45.8202 96.4024 46.7398 92.3206 48.5277 88.3467C48.7835 87.792 49.0393 87.2373 49.2483 86.6386C49.2923 86.5916 49.2426 86.4567 49.1872 86.1399C48.7211 85.7911 48.2054 85.3075 47.6015 84.9178C40.3932 80.0123 38.6969 75.2432 41.2964 66.6448C40.5576 66.305 39.7249 65.8774 38.8951 65.5407C34.1392 63.3764 30.4406 60.0846 27.9287 55.4335C23.824 47.8763 24.7809 39.1501 30.4383 32.2714C33.5078 28.5282 37.2893 25.7174 41.639 23.6161C52.1787 18.5789 63.1019 17.0796 74.5306 20.1157C75.1259 20.2326 75.7241 20.4404 76.3195 20.5572C76.4105 20.5542 76.5455 20.5042 76.9505 20.3543C75.7087 18.4835 74.076 17.2174 72.4875 15.9043C70.9898 14.5882 69.3572 13.3221 67.6749 11.921C68.961 10.8315 70.0579 10.9773 71.1194 11.443C72.3215 12.0405 73.6117 12.5441 74.5935 13.3765C77.2136 15.6569 79.8366 18.0283 82.2833 20.5876C84.1674 22.6192 83.7169 24.2274 81.2841 25.0362C76.1017 26.7098 70.8724 28.3394 65.6431 29.969C64.7862 30.225 63.9237 30.299 62.7912 30.473C62.8694 28.6041 63.9494 28.2042 64.9384 27.8073C68.6302 26.5017 72.1813 25.0641 76.0465 23.4796ZM65.4404 84.783C61.8086 82.1718 57.854 82.3481 54.982 85.1289C58.4605 85.7421 61.7131 86.4084 65.4404 84.783ZM56.4201 62.6395C53.0369 60.7029 49.9619 61.3509 47.556 64.4803C50.7475 64.6479 53.6164 64.6896 56.4201 62.6395Z" fill="#936DFF"/>
</g>
<defs>
<clipPath id="clip0_1573_82">
<rect width="74.89" height="87.3715" fill="white" transform="translate(55.4238 115.011) rotate(-136.84)"/>
</clipPath>
</defs>
</svg>
